<?xml version="1.0" encoding="utf-8" ?>
<svg baseProfile="tiny" height="100%" version="1.2" width="100%" xmlns="http://www.w3.org/2000/svg" xmlns:ev="http://www.w3.org/2001/xml-events" xmlns:xlink="http://www.w3.org/1999/xlink"><defs /><path d="M 44.0,60.99686274509804 L 43.0,60.99686274509804 L 42.0,60.99686274509804 L 41.00313725490196,60.0 L 42.0,59.00313725490196 L 42.00313725490196,59.0 L 43.0,58.00313725490196 L 43.00313725490196,58.0 L 44.0,57.00313725490196 L 44.00313725490196,57.0 L 44.00313725490196,56.0 L 44.00313725490196,55.0 L 44.00313725490196,54.0 L 44.00313725490196,53.0 L 44.00313725490196,52.0 L 44.00313725490196,51.0 L 44.00313725490196,50.0 L 44.00313725490196,49.0 L 44.00313725490196,48.0 L 44.00313725490196,47.0 L 44.00313725490196,46.0 L 44.00313725490196,45.0 L 44.00313725490196,44.0 L 44.00313725490196,43.0 L 44.00313725490196,42.0 L 44.00313725490196,41.0 L 44.00313725490196,40.0 L 44.00313725490196,39.0 L 44.00313725490196,38.0 L 44.00313725490196,37.0 L 44.00313725490196,36.0 L 44.00313725490196,35.0 L 44.00313725490196,34.0 L 44.00313725490196,33.0 L 44.00313725490196,32.0 L 44.0,31.99686274509804 L 43.00313725490196,31.0 L 43.00313725490196,30.0 L 43.0,29.99686274509804 L 42.00313725490196,29.0 L 42.00313725490196,28.0 L 42.0,27.99686274509804 L 41.0,27.99686274509804 L 40.0,27.99686274509804 L 39.99686274509804,28.0 L 39.0,28.99686274509804 L 38.99686274509804,29.0 L 38.0,29.99686274509804 L 37.99686274509804,30.0 L 37.0,30.99686274509804 L 36.0,30.99686274509804 L 35.0,30.99686274509804 L 34.0,30.99686274509804 L 33.0,30.99686274509804 L 32.0,30.99686274509804 L 31.0,30.99686274509804 L 30.00313725490196,30.0 L 30.0,29.99686274509804 L 29.0,29.99686274509804 L 28.00313725490196,29.0 L 28.0,28.99686274509804 L 27.00313725490196,28.0 L 27.0,27.99686274509804 L 26.0,27.99686274509804 L 25.99686274509804,28.0 L 25.0,28.99686274509804 L 24.99686274509804,29.0 L 24.99686274509804,30.0 L 24.0,30.99686274509804 L 23.99686274509804,31.0 L 23.99686274509804,32.0 L 23.99686274509804,33.0 L 23.99686274509804,34.0 L 23.0,34.99686274509804 L 22.99686274509804,35.0 L 22.99686274509804,36.0 L 22.99686274509804,37.0 L 22.99686274509804,38.0 L 22.99686274509804,39.0 L 22.99686274509804,40.0 L 22.99686274509804,41.0 L 22.99686274509804,42.0 L 22.99686274509804,43.0 L 22.99686274509804,44.0 L 22.99686274509804,45.0 L 22.99686274509804,46.0 L 22.99686274509804,47.0 L 22.99686274509804,48.0 L 22.99686274509804,49.0 L 22.99686274509804,50.0 L 22.99686274509804,51.0 L 22.99686274509804,52.0 L 22.99686274509804,53.0 L 22.99686274509804,54.0 L 22.99686274509804,55.0 L 23.0,55.00313725490196 L 23.99686274509804,56.0 L 23.99686274509804,57.0 L 24.0,57.00313725490196 L 24.99686274509804,58.0 L 25.0,58.00313725490196 L 25.99686274509804,59.0 L 25.99686274509804,60.0 L 25.0,60.99686274509804 L 24.0,60.99686274509804 L 23.0,60.99686274509804 L 22.00313725490196,60.0 L 22.0,59.99686274509804 L 21.00313725490196,59.0 L 21.0,58.99686274509804 L 20.00313725490196,58.0 L 20.00313725490196,57.0 L 20.00313725490196,56.0 L 20.00313725490196,55.0 L 20.00313725490196,54.0 L 20.00313725490196,53.0 L 20.00313725490196,52.0 L 20.00313725490196,51.0 L 20.00313725490196,50.0 L 20.00313725490196,49.0 L 20.00313725490196,48.0 L 20.00313725490196,47.0 L 20.00313725490196,46.0 L 20.00313725490196,45.0 L 20.00313725490196,44.0 L 20.00313725490196,43.0 L 20.00313725490196,42.0 L 20.00313725490196,41.0 L 20.00313725490196,40.0 L 20.00313725490196,39.0 L 20.00313725490196,38.0 L 20.00313725490196,37.0 L 20.00313725490196,36.0 L 20.00313725490196,35.0 L 20.00313725490196,34.0 L 20.00313725490196,33.0 L 20.00313725490196,32.0 L 20.00313725490196,31.0 L 21.0,30.00313725490196 L 21.00313725490196,30.0 L 21.00313725490196,29.0 L 22.0,28.00313725490196 L 22.00313725490196,28.0 L 23.0,27.00313725490196 L 23.00313725490196,27.0 L 23.00313725490196,26.0 L 24.0,25.00313725490196 L 24.00313725490196,25.0 L 25.0,24.00313725490196 L 25.00313725490196,24.0 L 25.00313725490196,23.0 L 25.00313725490196,22.0 L 25.00313725490196,21.0 L 25.0,20.99686274509804 L 24.00313725490196,20.0 L 24.0,19.99686274509804 L 23.00313725490196,19.0 L 23.0,18.99686274509804 L 22.00313725490196,18.0 L 22.0,17.99686274509804 L 21.00313725490196,17.0 L 21.0,16.99686274509804 L 20.0,16.99686274509804 L 19.0,16.99686274509804 L 18.00313725490196,16.0 L 18.0,15.996862745098039 L 17.0,15.996862745098039 L 16.0,15.996862745098039 L 15.003137254901961,15.0 L 15.003137254901961,14.0 L 16.0,13.003137254901961 L 17.0,13.003137254901961 L 18.0,13.003137254901961 L 19.0,13.003137254901961 L 20.0,13.003137254901961 L 21.0,13.003137254901961 L 21.99686274509804,14.0 L 22.0,14.003137254901961 L 22.99686274509804,15.0 L 23.0,15.003137254901961 L 23.99686274509804,16.0 L 24.0,16.00313725490196 L 24.99686274509804,17.0 L 25.0,17.00313725490196 L 26.0,17.00313725490196 L 27.0,17.00313725490196 L 28.0,17.00313725490196 L 28.00313725490196,17.0 L 29.0,16.00313725490196 L 29.00313725490196,16.0 L 30.0,15.003137254901961 L 31.0,15.003137254901961 L 31.00313725490196,15.0 L 32.0,14.003137254901961 L 33.0,14.003137254901961 L 34.0,14.003137254901961 L 35.0,14.003137254901961 L 36.0,14.003137254901961 L 36.99686274509804,15.0 L 37.0,15.003137254901961 L 38.0,15.003137254901961 L 38.99686274509804,16.0 L 39.0,16.00313725490196 L 39.99686274509804,17.0 L 40.0,17.00313725490196 L 41.0,17.00313725490196 L 42.0,17.00313725490196 L 42.00313725490196,17.0 L 43.0,16.00313725490196 L 43.00313725490196,16.0 L 44.0,15.003137254901961 L 44.00313725490196,15.0 L 45.0,14.003137254901961 L 45.00313725490196,14.0 L 46.0,13.003137254901961 L 47.0,13.003137254901961 L 48.0,13.003137254901961 L 49.0,13.003137254901961 L 50.0,13.003137254901961 L 51.0,13.003137254901961 L 51.99686274509804,14.0 L 52.0,14.003137254901961 L 52.99686274509804,15.0 L 52.0,15.996862745098039 L 51.0,15.996862745098039 L 50.99686274509804,16.0 L 50.0,16.99686274509804 L 49.0,16.99686274509804 L 48.0,16.99686274509804 L 47.0,16.99686274509804 L 46.99686274509804,17.0 L 46.0,17.99686274509804 L 45.99686274509804,18.0 L 45.0,18.99686274509804 L 44.99686274509804,19.0 L 44.0,19.99686274509804 L 43.0,19.99686274509804 L 42.99686274509804,20.0 L 42.0,20.99686274509804 L 41.99686274509804,21.0 L 41.99686274509804,22.0 L 41.99686274509804,23.0 L 41.99686274509804,24.0 L 42.0,24.00313725490196 L 42.99686274509804,25.0 L 43.0,25.00313725490196 L 43.99686274509804,26.0 L 44.0,26.00313725490196 L 44.99686274509804,27.0 L 45.0,27.00313725490196 L 45.99686274509804,28.0 L 45.99686274509804,29.0 L 46.0,29.00313725490196 L 46.99686274509804,30.0 L 46.99686274509804,31.0 L 46.99686274509804,32.0 L 46.99686274509804,33.0 L 47.0,33.00313725490196 L 47.99686274509804,34.0 L 47.99686274509804,35.0 L 47.99686274509804,36.0 L 47.99686274509804,37.0 L 47.99686274509804,38.0 L 47.99686274509804,39.0 L 47.99686274509804,40.0 L 47.99686274509804,41.0 L 47.99686274509804,42.0 L 47.99686274509804,43.0 L 47.99686274509804,44.0 L 47.99686274509804,45.0 L 47.99686274509804,46.0 L 47.99686274509804,47.0 L 47.99686274509804,48.0 L 47.99686274509804,49.0 L 47.99686274509804,50.0 L 47.99686274509804,51.0 L 47.99686274509804,52.0 L 47.99686274509804,53.0 L 47.99686274509804,54.0 L 47.99686274509804,55.0 L 47.99686274509804,56.0 L 47.0,56.99686274509804 L 46.99686274509804,57.0 L 46.99686274509804,58.0 L 46.0,58.99686274509804 L 45.99686274509804,59.0 L 45.0,59.99686274509804 L 44.99686274509804,60.0 L 44.0,60.99686274509804" fill="none" stroke="black" stroke-width="1" /><path d="M 35.00313725490196,28.0 L 36.0,27.00313725490196 L 37.0,27.00313725490196 L 37.00313725490196,27.0 L 38.0,26.00313725490196 L 38.00313725490196,26.0 L 38.00313725490196,25.0 L 39.0,24.00313725490196 L 39.00313725490196,24.0 L 39.00313725490196,23.0 L 39.00313725490196,22.0 L 39.00313725490196,21.0 L 39.0,20.99686274509804 L 38.00313725490196,20.0 L 38.0,19.99686274509804 L 37.00313725490196,19.0 L 37.0,18.99686274509804 L 36.00313725490196,18.0 L 36.0,17.99686274509804 L 35.0,17.99686274509804 L 34.0,17.99686274509804 L 33.0,17.99686274509804 L 32.0,17.99686274509804 L 31.0,17.99686274509804 L 30.99686274509804,18.0 L 30.0,18.99686274509804 L 29.99686274509804,19.0 L 29.99686274509804,20.0 L 29.0,20.99686274509804 L 28.99686274509804,21.0 L 28.99686274509804,22.0 L 28.99686274509804,23.0 L 28.99686274509804,24.0 L 28.99686274509804,25.0 L 29.0,25.00313725490196 L 29.99686274509804,26.0 L 30.0,26.00313725490196 L 30.99686274509804,27.0 L 31.0,27.00313725490196 L 32.0,27.00313725490196 L 32.99686274509804,28.0 L 33.0,28.00313725490196 L 34.0,28.00313725490196 L 35.0,28.00313725490196 L 35.00313725490196,28.0" fill="none" stroke="black" stroke-width="1" /><path d="M 35.0,26.99686274509804 L 34.0,26.99686274509804 L 33.0,26.99686274509804 L 32.0,26.99686274509804 L 31.00313725490196,26.0 L 31.0,25.99686274509804 L 30.00313725490196,25.0 L 30.00313725490196,24.0 L 30.0,23.99686274509804 L 29.00313725490196,23.0 L 30.0,22.00313725490196 L 30.00313725490196,22.0 L 31.0,21.00313725490196 L 32.0,21.00313725490196 L 32.99686274509804,22.0 L 32.99686274509804,23.0 L 33.0,23.00313725490196 L 34.0,23.00313725490196 L 35.0,23.00313725490196 L 35.00313725490196,23.0 L 35.0,22.99686274509804 L 34.00313725490196,22.0 L 34.0,21.99686274509804 L 33.00313725490196,21.0 L 33.0,20.99686274509804 L 32.00313725490196,20.0 L 33.0,19.00313725490196 L 33.00313725490196,19.0 L 34.0,18.00313725490196 L 34.99686274509804,19.0 L 35.0,19.00313725490196 L 36.0,19.00313725490196 L 36.99686274509804,20.0 L 37.0,20.00313725490196 L 37.99686274509804,21.0 L 37.99686274509804,22.0 L 37.99686274509804,23.0 L 37.99686274509804,24.0 L 37.0,24.99686274509804 L 36.99686274509804,25.0 L 36.0,25.99686274509804 L 35.99686274509804,26.0 L 35.0,26.99686274509804" fill="none" stroke="black" stroke-width="1" /><path d="M 65.0,60.99686274509804 L 64.0,60.99686274509804 L 63.0,60.99686274509804 L 62.0,60.99686274509804 L 61.0,60.99686274509804 L 60.0,60.99686274509804 L 59.0,60.99686274509804 L 58.0,60.99686274509804 L 57.0,60.99686274509804 L 56.0,60.99686274509804 L 55.0,60.99686274509804 L 54.0,60.99686274509804 L 53.0,60.99686274509804 L 52.0,60.99686274509804 L 51.00313725490196,60.0 L 51.0,59.99686274509804 L 50.00313725490196,59.0 L 50.0,58.99686274509804 L 49.00313725490196,58.0 L 49.00313725490196,57.0 L 49.0,56.99686274509804 L 48.00313725490196,56.0 L 48.00313725490196,55.0 L 48.00313725490196,54.0 L 48.00313725490196,53.0 L 48.00313725490196,52.0 L 48.00313725490196,51.0 L 48.00313725490196,50.0 L 48.00313725490196,49.0 L 48.00313725490196,48.0 L 48.00313725490196,47.0 L 48.00313725490196,46.0 L 48.00313725490196,45.0 L 48.00313725490196,44.0 L 48.00313725490196,43.0 L 48.00313725490196,42.0 L 48.00313725490196,41.0 L 48.00313725490196,40.0 L 48.00313725490196,39.0 L 48.00313725490196,38.0 L 48.00313725490196,37.0 L 48.00313725490196,36.0 L 48.00313725490196,35.0 L 48.00313725490196,34.0 L 48.00313725490196,33.0 L 48.00313725490196,32.0 L 49.0,31.00313725490196 L 49.00313725490196,31.0 L 49.00313725490196,30.0 L 49.00313725490196,29.0 L 50.0,28.00313725490196 L 50.00313725490196,28.0 L 51.0,27.00313725490196 L 51.00313725490196,27.0 L 52.0,26.00313725490196 L 52.00313725490196,26.0 L 53.0,25.00313725490196 L 53.00313725490196,25.0 L 54.0,24.00313725490196 L 55.0,24.00313725490196 L 55.00313725490196,24.0 L 56.0,23.00313725490196 L 57.0,23.00313725490196 L 58.0,23.00313725490196 L 59.0,23.00313725490196 L 60.0,23.00313725490196 L 61.0,23.00313725490196 L 62.0,23.00313725490196 L 62.99686274509804,24.0 L 63.0,24.00313725490196 L 64.0,24.00313725490196 L 64.99686274509804,25.0 L 65.0,25.00313725490196 L 65.99686274509804,26.0 L 66.0,26.00313725490196 L 66.99686274509804,27.0 L 67.0,27.00313725490196 L 67.99686274509804,28.0 L 67.99686274509804,29.0 L 68.0,29.00313725490196 L 68.99686274509804,30.0 L 68.99686274509804,31.0 L 68.99686274509804,32.0 L 68.99686274509804,33.0 L 68.99686274509804,34.0 L 68.99686274509804,35.0 L 68.99686274509804,36.0 L 68.99686274509804,37.0 L 68.99686274509804,38.0 L 68.99686274509804,39.0 L 68.99686274509804,40.0 L 68.99686274509804,41.0 L 68.99686274509804,42.0 L 68.99686274509804,43.0 L 68.99686274509804,44.0 L 68.99686274509804,45.0 L 68.99686274509804,46.0 L 68.99686274509804,47.0 L 68.99686274509804,48.0 L 68.99686274509804,49.0 L 68.99686274509804,50.0 L 68.99686274509804,51.0 L 68.99686274509804,52.0 L 68.99686274509804,53.0 L 68.99686274509804,54.0 L 68.99686274509804,55.0 L 68.99686274509804,56.0 L 68.99686274509804,57.0 L 68.0,57.99686274509804 L 67.99686274509804,58.0 L 67.0,58.99686274509804 L 66.99686274509804,59.0 L 66.0,59.99686274509804 L 65.99686274509804,60.0 L 65.0,60.99686274509804" fill="none" stroke="black" stroke-width="1" /><path d="M 66.00313725490196,41.0 L 66.00313725490196,40.0 L 66.00313725490196,39.0 L 66.00313725490196,38.0 L 66.00313725490196,37.0 L 66.00313725490196,36.0 L 66.00313725490196,35.0 L 66.00313725490196,34.0 L 66.00313725490196,33.0 L 66.0,32.99686274509804 L 65.00313725490196,32.0 L 65.00313725490196,31.0 L 65.00313725490196,30.0 L 65.0,29.99686274509804 L 64.00313725490196,29.0 L 64.0,28.99686274509804 L 63.00313725490196,28.0 L 63.0,27.99686274509804 L 62.00313725490196,27.0 L 62.0,26.99686274509804 L 61.0,26.99686274509804 L 60.00313725490196,26.0 L 60.0,25.99686274509804 L 59.0,25.99686274509804 L 58.0,25.99686274509804 L 57.99686274509804,26.0 L 57.0,26.99686274509804 L 56.0,26.99686274509804 L 55.0,26.99686274509804 L 54.99686274509804,27.0 L 54.0,27.99686274509804 L 53.99686274509804,28.0 L 53.0,28.99686274509804 L 52.99686274509804,29.0 L 52.99686274509804,30.0 L 52.0,30.99686274509804 L 51.99686274509804,31.0 L 51.99686274509804,32.0 L 51.99686274509804,33.0 L 51.99686274509804,34.0 L 51.99686274509804,35.0 L 51.99686274509804,36.0 L 51.99686274509804,37.0 L 51.99686274509804,38.0 L 51.99686274509804,39.0 L 51.99686274509804,40.0 L 51.99686274509804,41.0 L 52.0,41.00313725490196 L 53.0,41.00313725490196 L 54.0,41.00313725490196 L 55.0,41.00313725490196 L 56.0,41.00313725490196 L 57.0,41.00313725490196 L 58.0,41.00313725490196 L 59.0,41.00313725490196 L 60.0,41.00313725490196 L 61.0,41.00313725490196 L 62.0,41.00313725490196 L 63.0,41.00313725490196 L 64.0,41.00313725490196 L 65.0,41.00313725490196 L 66.0,41.00313725490196 L 66.00313725490196,41.0" fill="none" stroke="black" stroke-width="1" /><path d="M 34.0,77.99686274509804 L 33.00313725490196,77.0 L 33.0,76.99686274509804 L 32.0,76.99686274509804 L 31.0,76.99686274509804 L 30.00313725490196,76.0 L 30.0,75.99686274509804 L 29.00313725490196,75.0 L 29.0,74.99686274509804 L 28.00313725490196,74.0 L 28.0,73.99686274509804 L 27.00313725490196,73.0 L 27.00313725490196,72.0 L 27.00313725490196,71.0 L 27.00313725490196,70.0 L 27.00313725490196,69.0 L 27.00313725490196,68.0 L 27.00313725490196,67.0 L 27.00313725490196,66.0 L 27.00313725490196,65.0 L 27.00313725490196,64.0 L 27.00313725490196,63.0 L 27.00313725490196,62.0 L 27.00313725490196,61.0 L 27.00313725490196,60.0 L 27.00313725490196,59.0 L 27.00313725490196,58.0 L 27.00313725490196,57.0 L 27.0,56.99686274509804 L 26.0,56.99686274509804 L 25.00313725490196,56.0 L 25.0,55.99686274509804 L 24.00313725490196,55.0 L 24.00313725490196,54.0 L 24.00313725490196,53.0 L 24.00313725490196,52.0 L 24.00313725490196,51.0 L 24.00313725490196,50.0 L 24.00313725490196,49.0 L 24.00313725490196,48.0 L 24.00313725490196,47.0 L 24.00313725490196,46.0 L 24.00313725490196,45.0 L 24.00313725490196,44.0 L 24.00313725490196,43.0 L 24.00313725490196,42.0 L 25.0,41.00313725490196 L 25.00313725490196,41.0 L 25.00313725490196,40.0 L 25.00313725490196,39.0 L 26.0,38.00313725490196 L 26.00313725490196,38.0 L 27.0,37.00313725490196 L 27.00313725490196,37.0 L 28.0,36.00313725490196 L 28.00313725490196,36.0 L 29.0,35.00313725490196 L 29.00313725490196,35.0 L 30.0,34.00313725490196 L 31.0,34.00313725490196 L 32.0,34.00313725490196 L 32.00313725490196,34.0 L 33.0,33.00313725490196 L 34.0,33.00313725490196 L 35.0,33.00313725490196 L 35.99686274509804,34.0 L 36.0,34.00313725490196 L 37.0,34.00313725490196 L 38.0,34.00313725490196 L 38.99686274509804,35.0 L 39.0,35.00313725490196 L 39.99686274509804,36.0 L 40.0,36.00313725490196 L 40.99686274509804,37.0 L 41.0,37.00313725490196 L 41.99686274509804,38.0 L 41.99686274509804,39.0 L 42.0,39.00313725490196 L 42.99686274509804,40.0 L 42.99686274509804,41.0 L 42.99686274509804,42.0 L 42.99686274509804,43.0 L 42.99686274509804,44.0 L 42.99686274509804,45.0 L 42.99686274509804,46.0 L 42.99686274509804,47.0 L 42.99686274509804,48.0 L 42.99686274509804,49.0 L 42.99686274509804,50.0 L 42.99686274509804,51.0 L 42.99686274509804,52.0 L 42.99686274509804,53.0 L 42.99686274509804,54.0 L 42.99686274509804,55.0 L 42.99686274509804,56.0 L 42.0,56.99686274509804 L 41.0,56.99686274509804 L 40.0,56.99686274509804 L 39.0,56.99686274509804 L 38.0,56.99686274509804 L 37.0,56.99686274509804 L 36.0,56.99686274509804 L 35.0,56.99686274509804 L 34.0,56.99686274509804 L 33.0,56.99686274509804 L 32.0,56.99686274509804 L 31.0,56.99686274509804 L 30.99686274509804,57.0 L 30.99686274509804,58.0 L 30.99686274509804,59.0 L 30.99686274509804,60.0 L 30.99686274509804,61.0 L 30.99686274509804,62.0 L 30.99686274509804,63.0 L 30.99686274509804,64.0 L 30.99686274509804,65.0 L 30.99686274509804,66.0 L 30.99686274509804,67.0 L 30.99686274509804,68.0 L 30.99686274509804,69.0 L 30.99686274509804,70.0 L 30.99686274509804,71.0 L 30.99686274509804,72.0 L 30.99686274509804,73.0 L 31.0,73.00313725490196 L 31.99686274509804,74.0 L 32.0,74.00313725490196 L 33.0,74.00313725490196 L 34.0,74.00313725490196 L 35.0,74.00313725490196 L 35.00313725490196,74.0 L 36.0,73.00313725490196 L 36.00313725490196,73.0 L 37.0,72.00313725490196 L 37.00313725490196,72.0 L 37.00313725490196,71.0 L 37.00313725490196,70.0 L 37.00313725490196,69.0 L 37.00313725490196,68.0 L 37.00313725490196,67.0 L 37.00313725490196,66.0 L 37.00313725490196,65.0 L 37.00313725490196,64.0 L 37.00313725490196,63.0 L 37.00313725490196,62.0 L 37.00313725490196,61.0 L 37.00313725490196,60.0 L 37.00313725490196,59.0 L 38.0,58.00313725490196 L 39.0,58.00313725490196 L 39.99686274509804,59.0 L 40.0,59.00313725490196 L 40.99686274509804,60.0 L 40.99686274509804,61.0 L 40.99686274509804,62.0 L 40.99686274509804,63.0 L 40.99686274509804,64.0 L 40.99686274509804,65.0 L 40.99686274509804,66.0 L 40.99686274509804,67.0 L 40.99686274509804,68.0 L 40.99686274509804,69.0 L 40.99686274509804,70.0 L 40.99686274509804,71.0 L 40.99686274509804,72.0 L 40.0,72.99686274509804 L 39.99686274509804,73.0 L 39.99686274509804,74.0 L 39.0,74.99686274509804 L 38.99686274509804,75.0 L 38.0,75.99686274509804 L 37.99686274509804,76.0 L 37.0,76.99686274509804 L 36.0,76.99686274509804 L 35.0,76.99686274509804 L 34.99686274509804,77.0 L 34.0,77.99686274509804" fill="none" stroke="black" stroke-width="1" /><path d="M 63.0,36.99686274509804 L 62.0,36.99686274509804 L 61.0,36.99686274509804 L 60.0,36.99686274509804 L 59.0,36.99686274509804 L 58.0,36.99686274509804 L 57.0,36.99686274509804 L 56.0,36.99686274509804 L 55.0,36.99686274509804 L 54.0,36.99686274509804 L 53.00313725490196,36.0 L 53.0,35.99686274509804 L 52.00313725490196,35.0 L 53.0,34.00313725490196 L 54.0,34.00313725490196 L 54.00313725490196,34.0 L 55.0,33.00313725490196 L 56.0,33.00313725490196 L 57.0,33.00313725490196 L 58.0,33.00313725490196 L 59.0,33.00313725490196 L 60.0,33.00313725490196 L 61.0,33.00313725490196 L 62.0,33.00313725490196 L 63.0,33.00313725490196 L 63.99686274509804,34.0 L 64.0,34.00313725490196 L 64.99686274509804,35.0 L 64.0,35.99686274509804 L 63.99686274509804,36.0 L 63.0,36.99686274509804" fill="none" stroke="black" stroke-width="1" /><path d="M 39.00313725490196,54.0 L 40.0,53.00313725490196 L 40.00313725490196,53.0 L 40.00313725490196,52.0 L 40.00313725490196,51.0 L 40.00313725490196,50.0 L 40.00313725490196,49.0 L 40.00313725490196,48.0 L 40.00313725490196,47.0 L 40.00313725490196,46.0 L 40.00313725490196,45.0 L 40.00313725490196,44.0 L 40.00313725490196,43.0 L 40.00313725490196,42.0 L 40.00313725490196,41.0 L 40.0,40.99686274509804 L 39.00313725490196,40.0 L 39.00313725490196,39.0 L 39.0,38.99686274509804 L 38.00313725490196,38.0 L 38.0,37.99686274509804 L 37.0,37.99686274509804 L 36.00313725490196,37.0 L 36.0,36.99686274509804 L 35.99686274509804,37.0 L 35.99686274509804,38.0 L 35.0,38.99686274509804 L 34.99686274509804,39.0 L 34.99686274509804,40.0 L 34.0,40.99686274509804 L 33.0,40.99686274509804 L 32.00313725490196,40.0 L 32.00313725490196,39.0 L 32.00313725490196,38.0 L 32.00313725490196,37.0 L 32.0,36.99686274509804 L 31.99686274509804,37.0 L 31.0,37.99686274509804 L 30.0,37.99686274509804 L 29.99686274509804,38.0 L 29.0,38.99686274509804 L 28.99686274509804,39.0 L 28.99686274509804,40.0 L 28.0,40.99686274509804 L 27.99686274509804,41.0 L 27.99686274509804,42.0 L 27.99686274509804,43.0 L 27.99686274509804,44.0 L 27.99686274509804,45.0 L 27.99686274509804,46.0 L 27.99686274509804,47.0 L 27.99686274509804,48.0 L 27.99686274509804,49.0 L 27.99686274509804,50.0 L 27.99686274509804,51.0 L 27.99686274509804,52.0 L 27.99686274509804,53.0 L 27.99686274509804,54.0 L 28.0,54.00313725490196 L 29.0,54.00313725490196 L 30.0,54.00313725490196 L 31.0,54.00313725490196 L 32.0,54.00313725490196 L 33.0,54.00313725490196 L 34.0,54.00313725490196 L 35.0,54.00313725490196 L 36.0,54.00313725490196 L 37.0,54.00313725490196 L 38.0,54.00313725490196 L 39.0,54.00313725490196 L 39.00313725490196,54.0" fill="none" stroke="black" stroke-width="1" /><path d="M 76.0,77.99686274509804 L 75.00313725490196,77.0 L 75.0,76.99686274509804 L 74.0,76.99686274509804 L 73.00313725490196,76.0 L 73.0,75.99686274509804 L 72.00313725490196,75.0 L 72.0,74.99686274509804 L 71.00313725490196,74.0 L 71.00313725490196,73.0 L 71.00313725490196,72.0 L 71.00313725490196,71.0 L 71.00313725490196,70.0 L 71.00313725490196,69.0 L 71.00313725490196,68.0 L 71.00313725490196,67.0 L 71.00313725490196,66.0 L 71.00313725490196,65.0 L 71.00313725490196,64.0 L 71.00313725490196,63.0 L 71.00313725490196,62.0 L 71.0,61.99686274509804 L 70.00313725490196,61.0 L 70.00313725490196,60.0 L 70.00313725490196,59.0 L 70.00313725490196,58.0 L 70.00313725490196,57.0 L 70.00313725490196,56.0 L 70.00313725490196,55.0 L 70.00313725490196,54.0 L 70.00313725490196,53.0 L 70.00313725490196,52.0 L 70.00313725490196,51.0 L 70.00313725490196,50.0 L 70.00313725490196,49.0 L 70.00313725490196,48.0 L 70.00313725490196,47.0 L 70.00313725490196,46.0 L 70.00313725490196,45.0 L 71.0,44.00313725490196 L 71.00313725490196,44.0 L 72.0,43.00313725490196 L 72.00313725490196,43.0 L 73.0,42.00313725490196 L 74.0,42.00313725490196 L 74.00313725490196,42.0 L 75.0,41.00313725490196 L 76.0,41.00313725490196 L 77.0,41.00313725490196 L 78.0,41.00313725490196 L 78.99686274509804,42.0 L 79.0,42.00313725490196 L 79.99686274509804,43.0 L 80.0,43.00313725490196 L 80.99686274509804,44.0 L 81.0,44.00313725490196 L 81.99686274509804,45.0 L 81.99686274509804,46.0 L 81.99686274509804,47.0 L 81.99686274509804,48.0 L 81.99686274509804,49.0 L 81.99686274509804,50.0 L 81.99686274509804,51.0 L 81.99686274509804,52.0 L 81.99686274509804,53.0 L 81.99686274509804,54.0 L 81.99686274509804,55.0 L 81.99686274509804,56.0 L 81.99686274509804,57.0 L 81.99686274509804,58.0 L 81.99686274509804,59.0 L 81.99686274509804,60.0 L 81.0,60.99686274509804 L 80.0,60.99686274509804 L 79.0,60.99686274509804 L 78.0,60.99686274509804 L 77.0,60.99686274509804 L 76.0,60.99686274509804 L 75.0,60.99686274509804 L 74.99686274509804,61.0 L 74.0,61.99686274509804 L 73.99686274509804,62.0 L 73.99686274509804,63.0 L 73.99686274509804,64.0 L 73.99686274509804,65.0 L 73.99686274509804,66.0 L 73.99686274509804,67.0 L 73.99686274509804,68.0 L 73.99686274509804,69.0 L 73.99686274509804,70.0 L 73.99686274509804,71.0 L 73.99686274509804,72.0 L 73.99686274509804,73.0 L 74.0,73.00313725490196 L 74.99686274509804,74.0 L 75.0,74.00313725490196 L 76.0,74.00313725490196 L 77.0,74.00313725490196 L 77.00313725490196,74.0 L 78.0,73.00313725490196 L 78.00313725490196,73.0 L 78.00313725490196,72.0 L 78.00313725490196,71.0 L 78.00313725490196,70.0 L 78.00313725490196,69.0 L 78.00313725490196,68.0 L 78.00313725490196,67.0 L 78.00313725490196,66.0 L 78.00313725490196,65.0 L 78.00313725490196,64.0 L 79.0,63.00313725490196 L 79.00313725490196,63.0 L 80.0,62.00313725490196 L 80.99686274509804,63.0 L 81.0,63.00313725490196 L 81.99686274509804,64.0 L 81.99686274509804,65.0 L 81.99686274509804,66.0 L 81.99686274509804,67.0 L 81.99686274509804,68.0 L 81.99686274509804,69.0 L 81.99686274509804,70.0 L 81.99686274509804,71.0 L 81.99686274509804,72.0 L 81.99686274509804,73.0 L 81.0,73.99686274509804 L 80.99686274509804,74.0 L 80.99686274509804,75.0 L 80.0,75.99686274509804 L 79.99686274509804,76.0 L 79.0,76.99686274509804 L 78.0,76.99686274509804 L 77.0,76.99686274509804 L 76.99686274509804,77.0 L 76.0,77.99686274509804" fill="none" stroke="black" stroke-width="1" /><path d="M 61.00313725490196,58.0 L 61.00313725490196,57.0 L 61.00313725490196,56.0 L 61.00313725490196,55.0 L 61.00313725490196,54.0 L 61.00313725490196,53.0 L 61.00313725490196,52.0 L 61.00313725490196,51.0 L 61.00313725490196,50.0 L 61.00313725490196,49.0 L 61.00313725490196,48.0 L 61.00313725490196,47.0 L 62.0,46.00313725490196 L 63.0,46.00313725490196 L 63.99686274509804,47.0 L 63.99686274509804,48.0 L 63.99686274509804,49.0 L 63.99686274509804,50.0 L 63.99686274509804,51.0 L 63.99686274509804,52.0 L 63.99686274509804,53.0 L 63.99686274509804,54.0 L 63.99686274509804,55.0 L 63.99686274509804,56.0 L 63.99686274509804,57.0 L 64.0,57.00313725490196 L 65.0,57.00313725490196 L 65.00313725490196,57.0 L 65.00313725490196,56.0 L 66.0,55.00313725490196 L 66.00313725490196,55.0 L 66.00313725490196,54.0 L 66.00313725490196,53.0 L 66.00313725490196,52.0 L 66.00313725490196,51.0 L 66.00313725490196,50.0 L 66.00313725490196,49.0 L 66.00313725490196,48.0 L 66.00313725490196,47.0 L 66.00313725490196,46.0 L 66.00313725490196,45.0 L 66.0,44.99686274509804 L 65.0,44.99686274509804 L 64.0,44.99686274509804 L 63.0,44.99686274509804 L 62.0,44.99686274509804 L 61.0,44.99686274509804 L 60.0,44.99686274509804 L 59.0,44.99686274509804 L 58.0,44.99686274509804 L 57.0,44.99686274509804 L 56.0,44.99686274509804 L 55.0,44.99686274509804 L 54.0,44.99686274509804 L 53.0,44.99686274509804 L 52.0,44.99686274509804 L 51.99686274509804,45.0 L 51.99686274509804,46.0 L 51.99686274509804,47.0 L 51.99686274509804,48.0 L 51.99686274509804,49.0 L 51.99686274509804,50.0 L 51.99686274509804,51.0 L 51.99686274509804,52.0 L 51.99686274509804,53.0 L 51.99686274509804,54.0 L 51.99686274509804,55.0 L 51.99686274509804,56.0 L 52.0,56.00313725490196 L 52.99686274509804,57.0 L 53.0,57.00313725490196 L 53.00313725490196,57.0 L 53.00313725490196,56.0 L 53.00313725490196,55.0 L 53.00313725490196,54.0 L 53.00313725490196,53.0 L 53.00313725490196,52.0 L 53.00313725490196,51.0 L 53.00313725490196,50.0 L 53.00313725490196,49.0 L 53.00313725490196,48.0 L 53.00313725490196,47.0 L 54.0,46.00313725490196 L 55.0,46.00313725490196 L 55.99686274509804,47.0 L 55.99686274509804,48.0 L 55.99686274509804,49.0 L 55.99686274509804,50.0 L 55.99686274509804,51.0 L 55.99686274509804,52.0 L 55.99686274509804,53.0 L 55.99686274509804,54.0 L 55.99686274509804,55.0 L 55.99686274509804,56.0 L 55.99686274509804,57.0 L 55.99686274509804,58.0 L 56.0,58.00313725490196 L 57.0,58.00313725490196 L 58.0,58.00313725490196 L 59.0,58.00313725490196 L 60.0,58.00313725490196 L 61.0,58.00313725490196 L 61.00313725490196,58.0" fill="none" stroke="black" stroke-width="1" /><path d="M 79.00313725490196,58.0 L 79.00313725490196,57.0 L 79.00313725490196,56.0 L 79.00313725490196,55.0 L 79.00313725490196,54.0 L 79.00313725490196,53.0 L 79.00313725490196,52.0 L 79.00313725490196,51.0 L 79.00313725490196,50.0 L 79.00313725490196,49.0 L 79.00313725490196,48.0 L 79.00313725490196,47.0 L 79.00313725490196,46.0 L 79.0,45.99686274509804 L 78.00313725490196,45.0 L 78.0,44.99686274509804 L 77.99686274509804,45.0 L 77.99686274509804,46.0 L 77.99686274509804,47.0 L 77.0,47.99686274509804 L 76.99686274509804,48.0 L 76.0,48.99686274509804 L 75.00313725490196,48.0 L 75.0,47.99686274509804 L 74.00313725490196,47.0 L 74.00313725490196,46.0 L 74.0,45.99686274509804 L 73.99686274509804,46.0 L 73.99686274509804,47.0 L 73.0,47.99686274509804 L 72.99686274509804,48.0 L 72.99686274509804,49.0 L 72.99686274509804,50.0 L 72.99686274509804,51.0 L 72.99686274509804,52.0 L 72.99686274509804,53.0 L 72.99686274509804,54.0 L 72.99686274509804,55.0 L 72.99686274509804,56.0 L 72.99686274509804,57.0 L 72.99686274509804,58.0 L 73.0,58.00313725490196 L 74.0,58.00313725490196 L 75.0,58.00313725490196 L 76.0,58.00313725490196 L 77.0,58.00313725490196 L 78.0,58.00313725490196 L 79.0,58.00313725490196 L 79.00313725490196,58.0" fill="none" stroke="black" stroke-width="1" /></svg>